<?xml version="1.0" encoding="UTF-8" standalone="no"?>
<!-- Created with Inkscape (http://www.inkscape.org/) -->

<svg
   width="315.43387mm"
   height="77.437965mm"
   viewBox="0 0 315.43387 77.437964"
   version="1.1"
   id="svg864"
   inkscape:version="1.1.2 (b8e25be833, 2022-02-05)"
   sodipodi:docname="logo4.svg"
   xmlns:inkscape="http://www.inkscape.org/namespaces/inkscape"
   xmlns:sodipodi="http://sodipodi.sourceforge.net/DTD/sodipodi-0.dtd"
   xmlns="http://www.w3.org/2000/svg"
   xmlns:svg="http://www.w3.org/2000/svg">
  <sodipodi:namedview
     id="namedview866"
     pagecolor="#505050"
     bordercolor="#ffffff"
     borderopacity="1"
     inkscape:pageshadow="0"
     inkscape:pageopacity="0"
     inkscape:pagecheckerboard="1"
     inkscape:document-units="mm"
     showgrid="false"
     fit-margin-top="0"
     fit-margin-left="0"
     fit-margin-right="0"
     fit-margin-bottom="0"
     inkscape:zoom="0.5"
     inkscape:cx="373"
     inkscape:cy="479"
     inkscape:window-width="1807"
     inkscape:window-height="1051"
     inkscape:window-x="104"
     inkscape:window-y="-9"
     inkscape:window-maximized="1"
     inkscape:current-layer="layer1"
     showguides="true"
     inkscape:guide-bbox="true">
    <sodipodi:guide
       position="133.97176,-0.002268555"
       orientation="0,-1"
       id="guide895" />
    <sodipodi:guide
       position="42.017686,77.437964"
       orientation="0,-1"
       id="guide926" />
  </sodipodi:namedview>
  <defs
     id="defs861">
    <rect
       x="-219.20309"
       y="448.30569"
       width="1093.1871"
       height="343.6539"
       id="rect1868" />
    <clipPath
       clipPathUnits="userSpaceOnUse"
       id="clipPath10042">
      <path
         id="path10044"
         style="fill:none;fill-opacity:1;fill-rule:evenodd;stroke:#000000;stroke-width:2.80458;stroke-linecap:round;stroke-linejoin:round;stroke-miterlimit:4;stroke-dasharray:none;stroke-opacity:1;paint-order:markers stroke fill"
         d="m 10.883868,154.23838 v 4.61419 c 0.03631,-0.004 0.07313,-10e-4 0.109038,0.005 0.02326,0.004 0.04631,0.009 0.06925,0.015 0.02049,0.005 0.04077,0.0111 0.06046,0.0186 0.02254,0.008 0.04331,0.0192 0.06408,0.031 0.01096,0.007 0.02274,0.0121 0.03359,0.0191 0.01054,0.006 0.02125,0.0113 0.03152,0.0176 0.0096,0.006 0.0199,0.0106 0.02894,0.0171 0.0091,0.006 0.01841,0.0115 0.02739,0.0176 0.009,0.006 0.01777,0.0126 0.02687,0.0191 0.0072,0.004 0.01439,0.01 0.0217,0.0139 0.0083,0.005 0.01561,0.0101 0.02377,0.015 0.0055,0.004 0.01571,0.01 0.02325,0.015 -8.47e-4,-1.5e-4 0.0026,0.002 0.0057,0.004 4.5e-4,5.3e-4 9.52e-4,7.9e-4 0.0031,0.003 0.009,0.007 0.0194,0.0119 0.02946,0.0171 0.0089,0.004 0.01764,0.009 0.02636,0.0134 0.0096,0.005 0.01828,0.0105 0.02739,0.016 0.01359,0.008 0.02759,0.0153 0.03979,0.0253 0.0095,0.007 0.01995,0.0138 0.02894,0.0217 0.0087,0.007 0.01844,0.0124 0.02739,0.0191 0.0088,0.006 0.01834,0.0116 0.02739,0.0176 0.0101,0.007 0.02197,0.0127 0.03101,0.0212 0.0016,0.001 0.0033,0.002 0.0047,0.003 5.82e-4,5.2e-4 -8e-6,0.002 5.29e-4,0.003 0.005,0.006 0.01466,0.0106 0.02119,0.015 0.0106,0.007 0.02113,0.0127 0.03152,0.0196 0.0078,0.006 0.01824,0.009 0.02532,0.016 0.0095,0.006 0.01898,0.012 0.02842,0.0181 0.0081,0.005 0.01644,0.0101 0.02481,0.015 0.01199,0.007 0.02384,0.0144 0.03566,0.0217 0.0099,0.007 0.02001,0.0126 0.02946,0.0196 0.0061,0.004 0.01411,0.008 0.01912,0.0114 0.0089,0.005 0.01669,0.0106 0.02481,0.0165 0.0089,0.006 0.01836,0.011 0.02739,0.0165 0.01008,0.007 0.0228,0.0113 0.03204,0.0196 0.0142,0.008 0.02787,0.0178 0.04134,0.0274 0.01207,0.009 0.02486,0.0174 0.03617,0.0274 0.0047,0.004 0.01045,0.006 0.01499,0.0103 -7.68e-4,-5.3e-4 -0.002,-7.9e-4 -0.0026,-10e-4 -2e-4,0 5.55e-4,5.3e-4 0.0057,0.004 0.0096,0.007 0.01933,0.014 0.02894,0.0212 0.0091,0.005 0.01821,0.0104 0.02687,0.0165 0.01007,0.006 0.02046,0.0122 0.03049,0.0186 0.0088,0.005 0.01735,0.009 0.02532,0.015 0.0067,0.005 0.0037,10e-4 0.0067,0.006 0.01223,0.008 0.02482,0.0151 0.03772,0.0217 0.01433,0.007 0.02885,0.0137 0.04237,0.0222 0.01209,0.006 0.02416,0.0121 0.03617,0.0186 0.01162,0.005 0.02255,0.0123 0.03411,0.0176 0.01584,0.007 0.03125,0.0146 0.04651,0.0227 0.01467,0.008 0.02983,0.0151 0.04444,0.0233 0.01345,0.007 0.02725,0.0149 0.04082,0.0222 0.01235,0.006 0.02452,0.0122 0.03669,0.0186 0.01384,0.006 0.02724,0.0138 0.04031,0.0217 0.01125,0.008 0.02451,0.0131 0.03566,0.0207 0.01348,0.007 0.02643,0.0144 0.03876,0.0233 0.01133,0.008 0.02383,0.0146 0.03566,0.0217 0.01581,0.008 0.03138,0.0167 0.04651,0.0264 0.01174,0.007 0.02415,0.0132 0.03462,0.0222 0.01508,0.0113 0.0306,0.0219 0.04651,0.032 0.01034,0.006 0.01971,0.0135 0.02946,0.0202 0.128124,0.0866 -0.196043,0.56348 -0.323494,0.47594 -0.0048,-0.003 -0.0099,-0.006 -0.01447,-0.009 -0.0126,-0.008 -0.02474,-0.0147 -0.03824,-0.0207 -0.01392,-0.006 -0.02663,-0.0144 -0.03927,-0.0227 -0.01,-0.006 -0.01932,-0.013 -0.02945,-0.0186 -0.01423,-0.008 -0.02787,-0.0161 -0.04237,-0.0232 -0.01161,-0.004 -0.02174,-0.0115 -0.03256,-0.0171 -0.01203,-0.006 -0.02324,-0.0138 -0.03514,-0.0202 -0.0105,-0.005 -0.02072,-0.0117 -0.03101,-0.0176 -0.01287,-0.007 -0.02494,-0.015 -0.03772,-0.0222 -0.01264,-0.007 -0.02484,-0.0142 -0.03772,-0.0207 -0.01164,-0.006 -0.02275,-0.013 -0.03462,-0.0186 -0.01132,-0.006 -0.02243,-0.0117 -0.03359,-0.0176 -0.0161,-0.008 -0.03242,-0.0154 -0.04806,-0.0243 -0.01531,-0.008 -0.03039,-0.0158 -0.04547,-0.0238 -0.01349,-0.007 -0.02675,-0.0149 -0.03979,-0.0227 -0.01542,-0.009 -0.0312,-0.0165 -0.04703,-0.0243 -0.01469,-0.006 -0.02867,-0.0136 -0.04186,-0.0227 -0.0141,-0.008 -0.0276,-0.0155 -0.04134,-0.0238 -0.01487,-0.007 -0.0286,-0.0184 -0.04289,-0.0269 -0.01233,-0.008 -0.02506,-0.0142 -0.03721,-0.0222 -0.01397,-0.009 -0.02816,-0.0172 -0.04082,-0.0279 -0.006,-0.004 -0.01169,-0.008 -0.01757,-0.0129 0,0 -5.29e-4,-5.3e-4 -5.29e-4,-5.3e-4 -5.56e-4,-7.9e-4 -0.0017,-10e-4 -0.0026,-0.002 -0.0057,-0.003 -0.01145,-0.006 -0.01705,-0.01 -0.0088,-0.005 -0.01693,-0.0105 -0.02532,-0.016 -0.0105,-0.006 -0.02107,-0.0124 -0.03152,-0.0186 -0.0099,-0.005 -0.02011,-0.0102 -0.02946,-0.0165 -0.01184,-0.007 -0.02313,-0.0154 -0.03462,-0.0233 -0.0083,-0.005 -0.01637,-0.0105 -0.02429,-0.016 -0.0052,-0.006 -0.01491,-0.008 -0.02067,-0.0139 -0.01102,-0.008 -0.0236,-0.0138 -0.03462,-0.0217 -0.01027,-0.006 -0.02027,-0.0131 -0.03049,-0.0196 -0.01157,-0.007 -0.02224,-0.0148 -0.03307,-0.0227 -0.01028,-0.007 -0.02032,-0.0145 -0.03049,-0.0217 -0.01168,-0.008 -0.02366,-0.0149 -0.03617,-0.0212 -0.0085,-0.004 -0.01541,-0.0105 -0.02274,-0.016 -0.01017,-0.007 -0.01979,-0.0143 -0.02997,-0.0212 -0.0104,-0.007 -0.02038,-0.0139 -0.03101,-0.0202 -0.0086,-0.004 -0.01651,-0.01 -0.02481,-0.0145 -0.0077,-0.003 8.74e-4,5.3e-4 -0.0093,-0.005 -0.0075,-0.004 -0.01458,-0.008 -0.0217,-0.0129 -0.009,-0.005 -0.01763,-0.0114 -0.02687,-0.0165 -0.0092,-0.006 -0.01767,-0.0123 -0.02791,-0.016 -0.01367,-0.003 -0.02832,-0.0151 -0.04031,-0.0227 -0.0083,-0.005 -0.01654,-0.0102 -0.0248,-0.0155 -0.0079,-0.005 -0.01592,-0.0106 -0.02377,-0.016 -0.0095,-0.006 -0.0185,-0.013 -0.02791,-0.0196 -0.0068,-0.004 -0.01396,-0.008 -0.02067,-0.0119 -0.007,-0.004 -0.01412,-0.01 -0.02119,-0.0139 -0.0069,-0.004 -0.01272,-0.009 -0.01964,-0.0129 -0.0071,-0.005 -0.01364,-0.01 -0.02119,-0.0134 -0.0022,-0.001 -0.0041,-0.003 -0.0062,-0.004 -0.0024,2.7e-4 -0.0048,7.9e-4 -0.0072,0.001 -0.0073,10e-4 -0.01451,0.002 -0.0217,0.004 v 11.26391 H 60.503175 V 154.2406 Z m 0.02894,5.21053 c 0.0062,-7.9e-4 0.01243,-0.001 0.0186,-0.002 0.0073,-8e-4 0.01441,-0.002 0.0217,-0.003 0.0014,-1.1e-4 0.0061,-5.3e-4 0.0047,-5.3e-4 -0.01857,5.3e-4 -0.03639,5.3e-4 -0.05478,-0.003 -0.0022,-5.3e-4 -0.0036,-5.3e-4 -0.0041,-5.3e-4 9.52e-4,5.3e-4 0.0033,0.001 0.0041,0.002 0.0019,0.001 0.0042,0.003 0.0052,0.004 -5.3e-4,-1.1e-4 -0.0016,-7.9e-4 -0.0036,-0.002 0.0027,0.002 0.0056,0.003 0.0083,0.005 z" />
    </clipPath>
    <clipPath
       clipPathUnits="userSpaceOnUse"
       id="clipPath10052">
      <path
         id="path10054"
         style="fill:none;fill-opacity:1;fill-rule:evenodd;stroke:#000000;stroke-width:2.80458;stroke-linecap:round;stroke-linejoin:round;stroke-miterlimit:4;stroke-dasharray:none;stroke-opacity:1;paint-order:markers stroke fill"
         d="m 6.6846414,149.26091 v 10.58953 h 4.8555176 c -0.0058,-0.004 -0.01172,-0.008 -0.01757,-0.0119 -0.0083,-0.005 -0.01637,-0.0105 -0.02429,-0.016 -0.0052,-0.006 -0.01491,-0.008 -0.02067,-0.0139 -0.01102,-0.008 -0.0236,-0.0138 -0.03462,-0.0217 -0.01027,-0.006 -0.02027,-0.0131 -0.03049,-0.0196 -0.01157,-0.007 -0.02224,-0.0148 -0.03307,-0.0227 -0.01028,-0.007 -0.02032,-0.0145 -0.03049,-0.0217 -0.01168,-0.008 -0.02366,-0.0149 -0.03617,-0.0212 -0.0085,-0.004 -0.01541,-0.0105 -0.02274,-0.016 -0.01017,-0.007 -0.01979,-0.0143 -0.02997,-0.0212 -0.0104,-0.007 -0.02038,-0.0139 -0.03101,-0.0202 -0.0086,-0.004 -0.0165,-0.01 -0.0248,-0.0145 -0.0077,-0.003 8.73e-4,5.3e-4 -0.0093,-0.005 -0.0075,-0.004 -0.01458,-0.008 -0.0217,-0.0129 -0.009,-0.005 -0.01763,-0.0114 -0.02687,-0.0165 -0.0092,-0.006 -0.01768,-0.0123 -0.02791,-0.016 -0.01367,-0.003 -0.02832,-0.0151 -0.04031,-0.0227 -0.0083,-0.005 -0.01654,-0.0102 -0.02481,-0.0155 -0.0079,-0.005 -0.01592,-0.0106 -0.02377,-0.016 -0.0095,-0.006 -0.0185,-0.013 -0.02791,-0.0196 -0.0068,-0.004 -0.01396,-0.008 -0.02067,-0.0119 -0.007,-0.005 -0.01412,-0.01 -0.02119,-0.0139 -0.0069,-0.004 -0.01272,-0.009 -0.01964,-0.0129 -0.0071,-0.005 -0.01364,-0.01 -0.02119,-0.0134 -0.0022,-0.001 -0.0041,-0.003 -0.0062,-0.004 -0.0024,2.7e-4 -0.0048,8e-4 -0.0072,10e-4 -0.01306,0.002 -0.02572,0.005 -0.03876,0.007 -0.01204,0.002 -0.02408,0.002 -0.03617,0.004 -0.01695,0.002 -0.03411,0.004 -0.05116,0.005 -0.01685,0.001 -0.03379,0.003 -0.05064,0.004 -0.02226,7.9e-4 -0.04445,2.5e-4 -0.06666,-0.002 -0.02334,-10e-4 -0.04662,-0.004 -0.06976,-0.007 -0.021,-0.003 -0.04159,-0.006 -0.06253,-0.009 -0.02032,-0.002 -0.04078,-0.003 -0.06098,-0.006 -0.01962,-0.002 -0.03939,-0.003 -0.05891,-0.006 -0.02115,-7.9e-4 -0.04189,-0.005 -0.06253,-0.009 -0.02696,-0.005 -0.05387,-0.0104 -0.08061,-0.0165 -0.03138,-0.007 -0.06232,-0.0161 -0.0925,-0.0269 -0.02502,-0.009 -0.0484,-0.0202 -0.07235,-0.0315 -0.0027,-7.9e-4 -0.01302,-0.004 -0.01447,-0.003 -0.0012,8e-4 0.0011,0.003 5.29e-4,0.004 -4.76e-4,0.001 -0.0038,0.001 -0.0031,0.002 0.0092,0.0135 0.01761,0.009 0.0078,0.0129 -0.1383783,0.0613 0.06439,-0.60543 0.16278,-0.59945 0.0083,5.3e-4 0.01617,0.006 0.02274,0.017 7.41e-4,0.001 9.27e-4,0.003 0.0021,0.004 0.0071,0.005 0.01486,0.01 0.02222,0.015 0.01492,0.0104 0.02914,0.0216 0.04444,0.0315 0.003,0.002 0.0058,0.003 0.0088,0.005 0.0061,0.003 0.01272,0.006 0.01912,0.008 0.0059,0.002 0.0076,0.002 0.0041,0.002 0.0061,0.004 0.014,0.003 0.02015,0.006 0.01157,0.003 0.02329,0.004 0.03514,0.006 0.01558,0.002 0.03193,0.002 0.04703,0.006 0.01852,0.002 0.03682,0.004 0.05529,0.007 0.01911,0.002 0.03778,0.005 0.05684,0.008 0.01713,0.001 0.034,0.003 0.05116,0.003 0.01023,1e-4 0.02087,-7.9e-4 0.03101,-0.002 0.0063,-8e-4 0.01238,-0.002 0.0186,-0.003 0.0097,-0.001 0.01976,-0.002 0.02946,-0.004 0.0076,-8e-4 0.01467,-0.003 0.02222,-0.004 0.01024,-0.002 0.02079,-0.003 0.03101,-0.006 0.0086,-0.001 0.01772,-0.003 0.02635,-0.005 0.01189,-0.002 0.02368,-0.005 0.03566,-0.007 0.01252,-0.002 0.0251,-0.004 0.03772,-0.005 0.03864,-0.005 0.07797,-0.002 0.116272,0.004 0.02326,0.004 0.04631,0.009 0.06925,0.015 0.02049,0.005 0.04077,0.0111 0.06046,0.0186 0.02254,0.008 0.04331,0.0192 0.06408,0.031 0.01096,0.007 0.02274,0.0121 0.03359,0.0191 0.01054,0.006 0.02125,0.0113 0.03152,0.0176 0.0096,0.006 0.0199,0.0106 0.02894,0.0171 0.0091,0.006 0.01841,0.0115 0.02739,0.0176 0.009,0.006 0.01777,0.0126 0.02687,0.0191 0.0072,0.004 0.01439,0.01 0.0217,0.0139 0.0083,0.005 0.01561,0.0101 0.02377,0.015 0.0055,0.004 0.01571,0.01 0.02325,0.015 -8.47e-4,-1.5e-4 0.0026,0.002 0.0057,0.004 4.5e-4,5.3e-4 9.53e-4,8e-4 0.0031,0.003 0.009,0.007 0.0194,0.0119 0.02946,0.0171 0.0089,0.004 0.01764,0.009 0.02636,0.0134 0.0096,0.005 0.01828,0.0105 0.02739,0.016 0.01359,0.008 0.02759,0.0153 0.03979,0.0253 0.0095,0.007 0.01995,0.0138 0.02894,0.0217 0.0087,0.007 0.01844,0.0124 0.02739,0.0191 0.0088,0.006 0.01834,0.0116 0.02739,0.0176 0.0101,0.007 0.02197,0.0127 0.03101,0.0212 0.0016,10e-4 0.0033,0.002 0.0047,0.003 5.82e-4,5.3e-4 -8e-6,0.002 5.29e-4,0.003 0.005,0.006 0.01466,0.0106 0.02119,0.015 0.0106,0.007 0.02113,0.0127 0.03152,0.0196 0.0078,0.006 0.01824,0.009 0.02532,0.016 0.0095,0.006 0.01898,0.012 0.02842,0.0181 0.0081,0.005 0.01644,0.0101 0.02481,0.015 0.01199,0.007 0.02384,0.0144 0.03566,0.0217 0.0099,0.007 0.02001,0.0125 0.02946,0.0196 0.0061,0.004 0.01411,0.008 0.01912,0.0114 0.0089,0.005 0.01669,0.0106 0.02481,0.0165 0.0089,0.006 0.01836,0.011 0.02739,0.0165 0.01008,0.007 0.0228,0.0113 0.03204,0.0196 0.0142,0.008 0.02787,0.0178 0.04134,0.0274 0.01207,0.009 0.02486,0.0174 0.03617,0.0274 0.0047,0.004 0.01045,0.006 0.01499,0.0104 -7.68e-4,-5.3e-4 -0.002,-8e-4 -0.0026,-0.001 -2e-4,0 5.55e-4,5.3e-4 0.0057,0.004 0.0096,0.007 0.01933,0.014 0.02894,0.0212 0.0091,0.005 0.01821,0.0104 0.02687,0.0165 0.01007,0.006 0.02046,0.0122 0.03049,0.0186 0.0088,0.005 0.01735,0.009 0.02532,0.015 0.0067,0.005 0.0037,0.001 0.0067,0.006 0.01223,0.008 0.02482,0.0151 0.03772,0.0217 0.01433,0.007 0.02885,0.0137 0.04237,0.0222 0.01209,0.006 0.02416,0.0121 0.03617,0.0186 0.01162,0.005 0.02255,0.0123 0.03411,0.0176 0.01584,0.007 0.03125,0.0146 0.04651,0.0227 0.01467,0.008 0.02983,0.0151 0.04444,0.0233 0.01345,0.007 0.02725,0.0149 0.04082,0.0222 0.01235,0.006 0.02452,0.0122 0.03669,0.0186 0.01384,0.006 0.02724,0.0138 0.04031,0.0217 0.01125,0.008 0.02451,0.0131 0.03566,0.0207 0.01348,0.007 0.02643,0.0144 0.03876,0.0233 0.01133,0.008 0.02383,0.0146 0.03566,0.0217 0.01581,0.008 0.03138,0.0168 0.04651,0.0264 0.0084,0.005 0.01669,0.0101 0.02481,0.0155 h 1.829345 v -10.58954 z m 4.2281656,10.188 c 0.0062,-7.9e-4 0.01243,-0.001 0.0186,-0.002 0.0073,-8e-4 0.01441,-0.002 0.0217,-0.003 0.0014,-1.1e-4 0.0061,-5.3e-4 0.0047,-5.3e-4 -0.01857,5.3e-4 -0.03639,5.3e-4 -0.05478,-0.003 -0.0022,-5.3e-4 -0.0036,-5.3e-4 -0.0041,-5.3e-4 9.52e-4,5.3e-4 0.0033,0.001 0.0041,0.002 0.0019,0.001 0.0042,0.003 0.0052,0.004 -5.3e-4,-1.1e-4 -0.0016,-7.9e-4 -0.0036,-0.002 0.0027,0.002 0.0056,0.003 0.0083,0.005 z" />
    </clipPath>
    <clipPath
       clipPathUnits="userSpaceOnUse"
       id="clipPath10062">
      <path
         id="path10064"
         style="fill:none;fill-opacity:1;fill-rule:evenodd;stroke:#000000;stroke-width:2.80458;stroke-linecap:round;stroke-linejoin:round;stroke-miterlimit:4;stroke-dasharray:none;stroke-opacity:1;paint-order:markers stroke fill"
         d="m 10.426532,136.31131 v 22.55263 c 0.0026,2.6e-4 0.0051,7.9e-4 0.0078,10e-4 0.01558,0.002 0.03193,0.002 0.04703,0.006 0.01852,0.002 0.03682,0.004 0.05529,0.007 0.01911,0.002 0.03778,0.005 0.05684,0.008 0.01713,0.001 0.034,0.003 0.05116,0.003 0.01023,1.1e-4 0.02087,-7.9e-4 0.03101,-0.002 0.0063,-8e-4 0.01238,-0.002 0.0186,-0.003 0.0097,-0.001 0.01976,-0.002 0.02946,-0.004 0.0076,-8e-4 0.01467,-0.003 0.02222,-0.004 0.01024,-0.002 0.02079,-0.003 0.03101,-0.006 0.0086,-0.001 0.01772,-0.003 0.02636,-0.005 0.01189,-0.002 0.02368,-0.005 0.03566,-0.007 0.01252,-0.002 0.0251,-0.004 0.03772,-0.005 0.01475,-0.002 0.02959,-0.002 0.04444,-0.002 0.0088,-0.001 0.01746,-0.003 0.02636,-0.004 l -5.29e-4,5.3e-4 v 5.3e-4 c 0.01621,2.1e-4 0.03253,0.002 0.04857,0.004 0.01633,0.002 0.03232,0.006 0.04806,0.0109 0.0093,0.003 0.01795,0.007 0.02687,0.0114 0.01767,0.005 0.03516,0.01 0.05219,0.0165 0.02254,0.008 0.04331,0.0192 0.06408,0.031 0.01096,0.007 0.02274,0.0121 0.03359,0.0191 0.01054,0.006 0.02125,0.0113 0.03152,0.0176 0.0096,0.006 0.0199,0.0106 0.02894,0.0171 0.0091,0.006 0.01841,0.0115 0.02739,0.0176 0.009,0.006 0.01777,0.0126 0.02687,0.0191 0.0072,0.004 0.01438,0.01 0.0217,0.014 0.0083,0.005 0.01561,0.0101 0.02377,0.015 0.0055,0.004 0.01571,0.01 0.02325,0.015 -8.47e-4,-1.5e-4 0.0026,0.002 0.0057,0.004 4.5e-4,5.3e-4 9.53e-4,8e-4 0.0031,0.003 0.009,0.007 0.0194,0.0119 0.02946,0.0171 0.0089,0.004 0.01764,0.009 0.02636,0.0134 0.0096,0.005 0.01828,0.0105 0.02739,0.016 0.01359,0.008 0.02759,0.0153 0.03979,0.0253 0.0095,0.007 0.01995,0.0138 0.02894,0.0217 0.0087,0.007 0.01844,0.0124 0.02739,0.0191 0.0088,0.006 0.01834,0.0116 0.02739,0.0176 0.0101,0.007 0.02197,0.0127 0.03101,0.0212 0.0016,0.001 0.0033,0.002 0.0047,0.003 5.82e-4,5.3e-4 -8e-6,0.002 5.29e-4,0.003 0.005,0.006 0.01466,0.0106 0.02119,0.015 0.0106,0.007 0.02113,0.0127 0.03152,0.0196 0.0078,0.006 0.01824,0.009 0.02532,0.016 0.0095,0.006 0.01898,0.012 0.02842,0.0181 0.0027,0.002 0.0055,0.003 0.0083,0.005 0.0092,-0.008 0.01839,-0.0148 0.02687,-0.0155 0.0043,-2.6e-4 0.0085,2.7e-4 0.0124,0.003 0.06398,0.0363 0.128578,0.0714 0.19482,0.10335 0.01418,0.006 0.02848,0.0114 0.04237,0.0181 0.01338,0.006 0.02601,0.0145 0.03927,0.0212 0.0056,0.003 0.07616,0.0359 0.08217,0.0382 0.01448,0.006 0.03008,0.008 0.04444,0.0139 0.01271,0.005 0.0245,0.0123 0.03669,0.0186 0.03005,0.0118 0.03745,0.0148 0.03927,0.0155 l 5.29e-4,5.3e-4 c 8.99e-4,0.001 0.0063,0.005 0.03256,0.0186 0.01178,0.006 0.02445,0.0104 0.03617,0.0165 0.0107,0.006 0.02038,0.0129 0.03101,0.0186 0.03159,0.017 0.03733,0.0188 0.03721,0.0181 0.0032,0.002 0.01138,0.007 0.02842,0.0176 0.03345,0.0167 0.03609,0.0174 0.03669,0.0181 9.79e-4,0.001 0.0052,0.006 0.02377,0.0181 0.01021,0.007 0.0219,0.0119 0.03152,0.0196 0.0054,0.004 0.0084,0.0107 0.01292,0.016 0.0088,0.0103 0.01257,0.0145 0.01447,0.0165 l 5.29e-4,5.3e-4 v 5.3e-4 c 0.0015,0.002 0.0048,0.005 0.0124,0.0145 0.005,0.005 0.01041,0.0104 0.01499,0.016 0.0038,0.005 0.0068,0.01 0.01034,0.0145 0.0031,0.004 0.01844,0.0244 0.02222,0.0284 3.44e-4,2.6e-4 7.14e-4,7.9e-4 10e-4,0.001 0.01499,0.004 0.03015,0.007 0.04444,0.0134 0.0071,0.003 0.0083,0.003 0.0155,0.007 0.0077,0.004 0.0154,0.008 0.02325,0.0114 0.0062,0.003 0.01208,0.007 0.0186,0.0103 0.0088,0.004 0.01725,0.008 0.02584,0.0119 -5.55e-4,-2.6e-4 -9.79e-4,-5.3e-4 -5.29e-4,-0.001 5.56e-4,-5.3e-4 0.0013,5.3e-4 0.0021,5.3e-4 6.61e-4,4e-5 0.0014,-1.8e-4 0.0021,0 0.0067,0.002 0.01174,0.007 0.0186,0.009 0.03072,0.006 0.01892,0.0332 -0.01033,0.0687 0.007,0.005 0.01377,0.01 0.02067,0.0145 0.05389,0.0364 0.02736,0.14198 -0.03049,0.24546 H 29.09154 V 136.3114 Z m 0,23.12882 v 0.71469 h 1.635042 c -0.01475,-0.007 -0.02963,-0.0141 -0.04392,-0.0222 -0.01531,-0.008 -0.03039,-0.0158 -0.04547,-0.0238 -0.01349,-0.007 -0.02675,-0.0149 -0.03979,-0.0227 -0.01542,-0.009 -0.0312,-0.0165 -0.04702,-0.0243 -0.01469,-0.006 -0.02868,-0.0137 -0.04186,-0.0227 -0.0141,-0.008 -0.02761,-0.0155 -0.04134,-0.0238 -0.01487,-0.007 -0.0286,-0.0184 -0.04289,-0.0269 -0.01233,-0.008 -0.02506,-0.0142 -0.03721,-0.0222 -0.01397,-0.009 -0.02816,-0.0172 -0.04082,-0.0279 -0.006,-0.004 -0.01169,-0.008 -0.01757,-0.0129 0,0 -5.29e-4,-5.3e-4 -5.29e-4,-5.3e-4 -5.56e-4,-8e-4 -0.0017,-0.001 -0.0026,-0.002 -0.0057,-0.003 -0.01145,-0.006 -0.01705,-0.01 -0.0088,-0.005 -0.01693,-0.0105 -0.02532,-0.016 -0.0105,-0.006 -0.02107,-0.0124 -0.03152,-0.0186 -0.0099,-0.005 -0.02011,-0.0102 -0.02946,-0.0165 -0.01184,-0.007 -0.02313,-0.0155 -0.03462,-0.0233 -0.0083,-0.005 -0.01637,-0.0105 -0.02429,-0.016 -0.0052,-0.006 -0.01491,-0.008 -0.02067,-0.0139 -0.01102,-0.008 -0.0236,-0.0138 -0.03462,-0.0217 -0.01027,-0.006 -0.02027,-0.0131 -0.03049,-0.0196 -0.01157,-0.007 -0.02224,-0.0148 -0.03307,-0.0227 -0.01028,-0.007 -0.02032,-0.0145 -0.03049,-0.0217 -0.01168,-0.008 -0.02367,-0.0149 -0.03617,-0.0212 -0.0085,-0.004 -0.01541,-0.0105 -0.02274,-0.016 -0.01017,-0.007 -0.01979,-0.0143 -0.02997,-0.0212 -0.0104,-0.007 -0.02038,-0.0139 -0.03101,-0.0202 -0.0086,-0.004 -0.0165,-0.01 -0.0248,-0.0145 -0.0077,-0.003 8.73e-4,5.3e-4 -0.0093,-0.005 -0.0075,-0.004 -0.01458,-0.008 -0.0217,-0.0129 -0.009,-0.005 -0.01763,-0.0114 -0.02687,-0.0165 -0.0029,-0.002 -0.0055,-0.004 -0.0083,-0.006 -0.02179,0.028 -0.05004,0.0506 -0.08165,0.0667 -0.01163,0.005 -0.02334,0.009 -0.03514,0.0134 -0.0055,0.002 -0.01132,0.003 -0.01705,0.004 -0.04086,0.008 -0.08201,0.006 -0.12144,-0.008 -0.0085,-0.004 -0.01746,-0.007 -0.02584,-0.0103 -0.0202,-0.009 -0.03803,-0.0228 -0.05633,-0.0351 -0.0096,-0.007 -0.01984,-0.0129 -0.03049,-0.0176 -0.0027,-10e-4 -0.0056,-0.002 -0.0083,-0.003 -0.0019,-7.9e-4 -0.0038,-0.002 -0.0057,-0.003 -0.01035,-0.002 -4.76e-4,-2.7e-4 -0.01137,-0.004 -0.0081,-0.003 -0.01685,-0.006 -0.02481,-0.009 -0.0015,-5.2e-4 -0.0022,-0.002 -0.0036,-0.003 -0.0072,-0.004 -0.01428,-0.01 -0.02119,-0.0145 -0.01267,-0.008 -0.02741,-0.0208 -0.03669,-0.032 -0.0077,-0.009 -0.01462,-0.0195 -0.02222,-0.0289 -3.18e-4,-5.3e-4 -0.0016,-2.2e-4 -0.0021,-5.3e-4 -0.02007,-0.006 -0.01893,-0.0217 -0.0057,-0.0413 -0.01206,-0.001 -0.02418,-0.002 -0.03617,-0.004 -0.021,-0.003 -0.04159,-0.006 -0.06253,-0.009 -0.02032,-0.002 -0.04078,-0.003 -0.06098,-0.006 -0.01412,-0.001 -0.02826,-0.003 -0.04238,-0.004 z" />
    </clipPath>
    <clipPath
       clipPathUnits="userSpaceOnUse"
       id="clipPath10072">
      <path
         id="path10074"
         style="fill:none;fill-opacity:1;fill-rule:evenodd;stroke:#000000;stroke-width:2.80458;stroke-linecap:round;stroke-linejoin:round;stroke-miterlimit:4;stroke-dasharray:none;stroke-opacity:1;paint-order:markers stroke fill"
         d="M 7.4246479,93.999163 V 154.00997 H 77.729916 V 93.999163 Z" />
    </clipPath>
    <clipPath
       clipPathUnits="userSpaceOnUse"
       id="clipPath10042-5">
      <path
         id="path10044-2"
         style="fill:none;fill-opacity:1;fill-rule:evenodd;stroke:#000000;stroke-width:2.80458;stroke-linecap:round;stroke-linejoin:round;stroke-miterlimit:4;stroke-dasharray:none;stroke-opacity:1;paint-order:markers stroke fill"
         d="m 10.883868,154.23838 v 4.61419 c 0.03631,-0.004 0.07313,-10e-4 0.109038,0.005 0.02326,0.004 0.04631,0.009 0.06925,0.015 0.02049,0.005 0.04077,0.0111 0.06046,0.0186 0.02254,0.008 0.04331,0.0192 0.06408,0.031 0.01096,0.007 0.02274,0.0121 0.03359,0.0191 0.01054,0.006 0.02125,0.0113 0.03152,0.0176 0.0096,0.006 0.0199,0.0106 0.02894,0.0171 0.0091,0.006 0.01841,0.0115 0.02739,0.0176 0.009,0.006 0.01777,0.0126 0.02687,0.0191 0.0072,0.004 0.01439,0.01 0.0217,0.0139 0.0083,0.005 0.01561,0.0101 0.02377,0.015 0.0055,0.004 0.01571,0.01 0.02325,0.015 -8.47e-4,-1.5e-4 0.0026,0.002 0.0057,0.004 4.5e-4,5.3e-4 9.52e-4,7.9e-4 0.0031,0.003 0.009,0.007 0.0194,0.0119 0.02946,0.0171 0.0089,0.004 0.01764,0.009 0.02636,0.0134 0.0096,0.005 0.01828,0.0105 0.02739,0.016 0.01359,0.008 0.02759,0.0153 0.03979,0.0253 0.0095,0.007 0.01995,0.0138 0.02894,0.0217 0.0087,0.007 0.01844,0.0124 0.02739,0.0191 0.0088,0.006 0.01834,0.0116 0.02739,0.0176 0.0101,0.007 0.02197,0.0127 0.03101,0.0212 0.0016,0.001 0.0033,0.002 0.0047,0.003 5.82e-4,5.2e-4 -8e-6,0.002 5.29e-4,0.003 0.005,0.006 0.01466,0.0106 0.02119,0.015 0.0106,0.007 0.02113,0.0127 0.03152,0.0196 0.0078,0.006 0.01824,0.009 0.02532,0.016 0.0095,0.006 0.01898,0.012 0.02842,0.0181 0.0081,0.005 0.01644,0.0101 0.02481,0.015 0.01199,0.007 0.02384,0.0144 0.03566,0.0217 0.0099,0.007 0.02001,0.0126 0.02946,0.0196 0.0061,0.004 0.01411,0.008 0.01912,0.0114 0.0089,0.005 0.01669,0.0106 0.02481,0.0165 0.0089,0.006 0.01836,0.011 0.02739,0.0165 0.01008,0.007 0.0228,0.0113 0.03204,0.0196 0.0142,0.008 0.02787,0.0178 0.04134,0.0274 0.01207,0.009 0.02486,0.0174 0.03617,0.0274 0.0047,0.004 0.01045,0.006 0.01499,0.0103 -7.68e-4,-5.3e-4 -0.002,-7.9e-4 -0.0026,-10e-4 -2e-4,0 5.55e-4,5.3e-4 0.0057,0.004 0.0096,0.007 0.01933,0.014 0.02894,0.0212 0.0091,0.005 0.01821,0.0104 0.02687,0.0165 0.01007,0.006 0.02046,0.0122 0.03049,0.0186 0.0088,0.005 0.01735,0.009 0.02532,0.015 0.0067,0.005 0.0037,10e-4 0.0067,0.006 0.01223,0.008 0.02482,0.0151 0.03772,0.0217 0.01433,0.007 0.02885,0.0137 0.04237,0.0222 0.01209,0.006 0.02416,0.0121 0.03617,0.0186 0.01162,0.005 0.02255,0.0123 0.03411,0.0176 0.01584,0.007 0.03125,0.0146 0.04651,0.0227 0.01467,0.008 0.02983,0.0151 0.04444,0.0233 0.01345,0.007 0.02725,0.0149 0.04082,0.0222 0.01235,0.006 0.02452,0.0122 0.03669,0.0186 0.01384,0.006 0.02724,0.0138 0.04031,0.0217 0.01125,0.008 0.02451,0.0131 0.03566,0.0207 0.01348,0.007 0.02643,0.0144 0.03876,0.0233 0.01133,0.008 0.02383,0.0146 0.03566,0.0217 0.01581,0.008 0.03138,0.0167 0.04651,0.0264 0.01174,0.007 0.02415,0.0132 0.03462,0.0222 0.01508,0.0113 0.0306,0.0219 0.04651,0.032 0.01034,0.006 0.01971,0.0135 0.02946,0.0202 0.128124,0.0866 -0.196043,0.56348 -0.323494,0.47594 -0.0048,-0.003 -0.0099,-0.006 -0.01447,-0.009 -0.0126,-0.008 -0.02474,-0.0147 -0.03824,-0.0207 -0.01392,-0.006 -0.02663,-0.0144 -0.03927,-0.0227 -0.01,-0.006 -0.01932,-0.013 -0.02945,-0.0186 -0.01423,-0.008 -0.02787,-0.0161 -0.04237,-0.0232 -0.01161,-0.004 -0.02174,-0.0115 -0.03256,-0.0171 -0.01203,-0.006 -0.02324,-0.0138 -0.03514,-0.0202 -0.0105,-0.005 -0.02072,-0.0117 -0.03101,-0.0176 -0.01287,-0.007 -0.02494,-0.015 -0.03772,-0.0222 -0.01264,-0.007 -0.02484,-0.0142 -0.03772,-0.0207 -0.01164,-0.006 -0.02275,-0.013 -0.03462,-0.0186 -0.01132,-0.006 -0.02243,-0.0117 -0.03359,-0.0176 -0.0161,-0.008 -0.03242,-0.0154 -0.04806,-0.0243 -0.01531,-0.008 -0.03039,-0.0158 -0.04547,-0.0238 -0.01349,-0.007 -0.02675,-0.0149 -0.03979,-0.0227 -0.01542,-0.009 -0.0312,-0.0165 -0.04703,-0.0243 -0.01469,-0.006 -0.02867,-0.0136 -0.04186,-0.0227 -0.0141,-0.008 -0.0276,-0.0155 -0.04134,-0.0238 -0.01487,-0.007 -0.0286,-0.0184 -0.04289,-0.0269 -0.01233,-0.008 -0.02506,-0.0142 -0.03721,-0.0222 -0.01397,-0.009 -0.02816,-0.0172 -0.04082,-0.0279 -0.006,-0.004 -0.01169,-0.008 -0.01757,-0.0129 0,0 -5.29e-4,-5.3e-4 -5.29e-4,-5.3e-4 -5.56e-4,-7.9e-4 -0.0017,-10e-4 -0.0026,-0.002 -0.0057,-0.003 -0.01145,-0.006 -0.01705,-0.01 -0.0088,-0.005 -0.01693,-0.0105 -0.02532,-0.016 -0.0105,-0.006 -0.02107,-0.0124 -0.03152,-0.0186 -0.0099,-0.005 -0.02011,-0.0102 -0.02946,-0.0165 -0.01184,-0.007 -0.02313,-0.0154 -0.03462,-0.0233 -0.0083,-0.005 -0.01637,-0.0105 -0.02429,-0.016 -0.0052,-0.006 -0.01491,-0.008 -0.02067,-0.0139 -0.01102,-0.008 -0.0236,-0.0138 -0.03462,-0.0217 -0.01027,-0.006 -0.02027,-0.0131 -0.03049,-0.0196 -0.01157,-0.007 -0.02224,-0.0148 -0.03307,-0.0227 -0.01028,-0.007 -0.02032,-0.0145 -0.03049,-0.0217 -0.01168,-0.008 -0.02366,-0.0149 -0.03617,-0.0212 -0.0085,-0.004 -0.01541,-0.0105 -0.02274,-0.016 -0.01017,-0.007 -0.01979,-0.0143 -0.02997,-0.0212 -0.0104,-0.007 -0.02038,-0.0139 -0.03101,-0.0202 -0.0086,-0.004 -0.01651,-0.01 -0.02481,-0.0145 -0.0077,-0.003 8.74e-4,5.3e-4 -0.0093,-0.005 -0.0075,-0.004 -0.01458,-0.008 -0.0217,-0.0129 -0.009,-0.005 -0.01763,-0.0114 -0.02687,-0.0165 -0.0092,-0.006 -0.01767,-0.0123 -0.02791,-0.016 -0.01367,-0.003 -0.02832,-0.0151 -0.04031,-0.0227 -0.0083,-0.005 -0.01654,-0.0102 -0.0248,-0.0155 -0.0079,-0.005 -0.01592,-0.0106 -0.02377,-0.016 -0.0095,-0.006 -0.0185,-0.013 -0.02791,-0.0196 -0.0068,-0.004 -0.01396,-0.008 -0.02067,-0.0119 -0.007,-0.004 -0.01412,-0.01 -0.02119,-0.0139 -0.0069,-0.004 -0.01272,-0.009 -0.01964,-0.0129 -0.0071,-0.005 -0.01364,-0.01 -0.02119,-0.0134 -0.0022,-0.001 -0.0041,-0.003 -0.0062,-0.004 -0.0024,2.7e-4 -0.0048,7.9e-4 -0.0072,0.001 -0.0073,10e-4 -0.01451,0.002 -0.0217,0.004 v 11.26391 H 60.503175 V 154.2406 Z m 0.02894,5.21053 c 0.0062,-7.9e-4 0.01243,-0.001 0.0186,-0.002 0.0073,-8e-4 0.01441,-0.002 0.0217,-0.003 0.0014,-1.1e-4 0.0061,-5.3e-4 0.0047,-5.3e-4 -0.01857,5.3e-4 -0.03639,5.3e-4 -0.05478,-0.003 -0.0022,-5.3e-4 -0.0036,-5.3e-4 -0.0041,-5.3e-4 9.52e-4,5.3e-4 0.0033,0.001 0.0041,0.002 0.0019,0.001 0.0042,0.003 0.0052,0.004 -5.3e-4,-1.1e-4 -0.0016,-7.9e-4 -0.0036,-0.002 0.0027,0.002 0.0056,0.003 0.0083,0.005 z" />
    </clipPath>
    <clipPath
       clipPathUnits="userSpaceOnUse"
       id="clipPath10052-7">
      <path
         id="path10054-6"
         style="fill:none;fill-opacity:1;fill-rule:evenodd;stroke:#000000;stroke-width:2.80458;stroke-linecap:round;stroke-linejoin:round;stroke-miterlimit:4;stroke-dasharray:none;stroke-opacity:1;paint-order:markers stroke fill"
         d="m 6.6846414,149.26091 v 10.58953 h 4.8555176 c -0.0058,-0.004 -0.01172,-0.008 -0.01757,-0.0119 -0.0083,-0.005 -0.01637,-0.0105 -0.02429,-0.016 -0.0052,-0.006 -0.01491,-0.008 -0.02067,-0.0139 -0.01102,-0.008 -0.0236,-0.0138 -0.03462,-0.0217 -0.01027,-0.006 -0.02027,-0.0131 -0.03049,-0.0196 -0.01157,-0.007 -0.02224,-0.0148 -0.03307,-0.0227 -0.01028,-0.007 -0.02032,-0.0145 -0.03049,-0.0217 -0.01168,-0.008 -0.02366,-0.0149 -0.03617,-0.0212 -0.0085,-0.004 -0.01541,-0.0105 -0.02274,-0.016 -0.01017,-0.007 -0.01979,-0.0143 -0.02997,-0.0212 -0.0104,-0.007 -0.02038,-0.0139 -0.03101,-0.0202 -0.0086,-0.004 -0.0165,-0.01 -0.0248,-0.0145 -0.0077,-0.003 8.73e-4,5.3e-4 -0.0093,-0.005 -0.0075,-0.004 -0.01458,-0.008 -0.0217,-0.0129 -0.009,-0.005 -0.01763,-0.0114 -0.02687,-0.0165 -0.0092,-0.006 -0.01768,-0.0123 -0.02791,-0.016 -0.01367,-0.003 -0.02832,-0.0151 -0.04031,-0.0227 -0.0083,-0.005 -0.01654,-0.0102 -0.02481,-0.0155 -0.0079,-0.005 -0.01592,-0.0106 -0.02377,-0.016 -0.0095,-0.006 -0.0185,-0.013 -0.02791,-0.0196 -0.0068,-0.004 -0.01396,-0.008 -0.02067,-0.0119 -0.007,-0.005 -0.01412,-0.01 -0.02119,-0.0139 -0.0069,-0.004 -0.01272,-0.009 -0.01964,-0.0129 -0.0071,-0.005 -0.01364,-0.01 -0.02119,-0.0134 -0.0022,-0.001 -0.0041,-0.003 -0.0062,-0.004 -0.0024,2.7e-4 -0.0048,8e-4 -0.0072,10e-4 -0.01306,0.002 -0.02572,0.005 -0.03876,0.007 -0.01204,0.002 -0.02408,0.002 -0.03617,0.004 -0.01695,0.002 -0.03411,0.004 -0.05116,0.005 -0.01685,0.001 -0.03379,0.003 -0.05064,0.004 -0.02226,7.9e-4 -0.04445,2.5e-4 -0.06666,-0.002 -0.02334,-10e-4 -0.04662,-0.004 -0.06976,-0.007 -0.021,-0.003 -0.04159,-0.006 -0.06253,-0.009 -0.02032,-0.002 -0.04078,-0.003 -0.06098,-0.006 -0.01962,-0.002 -0.03939,-0.003 -0.05891,-0.006 -0.02115,-7.9e-4 -0.04189,-0.005 -0.06253,-0.009 -0.02696,-0.005 -0.05387,-0.0104 -0.08061,-0.0165 -0.03138,-0.007 -0.06232,-0.0161 -0.0925,-0.0269 -0.02502,-0.009 -0.0484,-0.0202 -0.07235,-0.0315 -0.0027,-7.9e-4 -0.01302,-0.004 -0.01447,-0.003 -0.0012,8e-4 0.0011,0.003 5.29e-4,0.004 -4.76e-4,0.001 -0.0038,0.001 -0.0031,0.002 0.0092,0.0135 0.01761,0.009 0.0078,0.0129 -0.1383783,0.0613 0.06439,-0.60543 0.16278,-0.59945 0.0083,5.3e-4 0.01617,0.006 0.02274,0.017 7.41e-4,0.001 9.27e-4,0.003 0.0021,0.004 0.0071,0.005 0.01486,0.01 0.02222,0.015 0.01492,0.0104 0.02914,0.0216 0.04444,0.0315 0.003,0.002 0.0058,0.003 0.0088,0.005 0.0061,0.003 0.01272,0.006 0.01912,0.008 0.0059,0.002 0.0076,0.002 0.0041,0.002 0.0061,0.004 0.014,0.003 0.02015,0.006 0.01157,0.003 0.02329,0.004 0.03514,0.006 0.01558,0.002 0.03193,0.002 0.04703,0.006 0.01852,0.002 0.03682,0.004 0.05529,0.007 0.01911,0.002 0.03778,0.005 0.05684,0.008 0.01713,0.001 0.034,0.003 0.05116,0.003 0.01023,1e-4 0.02087,-7.9e-4 0.03101,-0.002 0.0063,-8e-4 0.01238,-0.002 0.0186,-0.003 0.0097,-0.001 0.01976,-0.002 0.02946,-0.004 0.0076,-8e-4 0.01467,-0.003 0.02222,-0.004 0.01024,-0.002 0.02079,-0.003 0.03101,-0.006 0.0086,-0.001 0.01772,-0.003 0.02635,-0.005 0.01189,-0.002 0.02368,-0.005 0.03566,-0.007 0.01252,-0.002 0.0251,-0.004 0.03772,-0.005 0.03864,-0.005 0.07797,-0.002 0.116272,0.004 0.02326,0.004 0.04631,0.009 0.06925,0.015 0.02049,0.005 0.04077,0.0111 0.06046,0.0186 0.02254,0.008 0.04331,0.0192 0.06408,0.031 0.01096,0.007 0.02274,0.0121 0.03359,0.0191 0.01054,0.006 0.02125,0.0113 0.03152,0.0176 0.0096,0.006 0.0199,0.0106 0.02894,0.0171 0.0091,0.006 0.01841,0.0115 0.02739,0.0176 0.009,0.006 0.01777,0.0126 0.02687,0.0191 0.0072,0.004 0.01439,0.01 0.0217,0.0139 0.0083,0.005 0.01561,0.0101 0.02377,0.015 0.0055,0.004 0.01571,0.01 0.02325,0.015 -8.47e-4,-1.5e-4 0.0026,0.002 0.0057,0.004 4.5e-4,5.3e-4 9.53e-4,8e-4 0.0031,0.003 0.009,0.007 0.0194,0.0119 0.02946,0.0171 0.0089,0.004 0.01764,0.009 0.02636,0.0134 0.0096,0.005 0.01828,0.0105 0.02739,0.016 0.01359,0.008 0.02759,0.0153 0.03979,0.0253 0.0095,0.007 0.01995,0.0138 0.02894,0.0217 0.0087,0.007 0.01844,0.0124 0.02739,0.0191 0.0088,0.006 0.01834,0.0116 0.02739,0.0176 0.0101,0.007 0.02197,0.0127 0.03101,0.0212 0.0016,10e-4 0.0033,0.002 0.0047,0.003 5.82e-4,5.3e-4 -8e-6,0.002 5.29e-4,0.003 0.005,0.006 0.01466,0.0106 0.02119,0.015 0.0106,0.007 0.02113,0.0127 0.03152,0.0196 0.0078,0.006 0.01824,0.009 0.02532,0.016 0.0095,0.006 0.01898,0.012 0.02842,0.0181 0.0081,0.005 0.01644,0.0101 0.02481,0.015 0.01199,0.007 0.02384,0.0144 0.03566,0.0217 0.0099,0.007 0.02001,0.0125 0.02946,0.0196 0.0061,0.004 0.01411,0.008 0.01912,0.0114 0.0089,0.005 0.01669,0.0106 0.02481,0.0165 0.0089,0.006 0.01836,0.011 0.02739,0.0165 0.01008,0.007 0.0228,0.0113 0.03204,0.0196 0.0142,0.008 0.02787,0.0178 0.04134,0.0274 0.01207,0.009 0.02486,0.0174 0.03617,0.0274 0.0047,0.004 0.01045,0.006 0.01499,0.0104 -7.68e-4,-5.3e-4 -0.002,-8e-4 -0.0026,-0.001 -2e-4,0 5.55e-4,5.3e-4 0.0057,0.004 0.0096,0.007 0.01933,0.014 0.02894,0.0212 0.0091,0.005 0.01821,0.0104 0.02687,0.0165 0.01007,0.006 0.02046,0.0122 0.03049,0.0186 0.0088,0.005 0.01735,0.009 0.02532,0.015 0.0067,0.005 0.0037,0.001 0.0067,0.006 0.01223,0.008 0.02482,0.0151 0.03772,0.0217 0.01433,0.007 0.02885,0.0137 0.04237,0.0222 0.01209,0.006 0.02416,0.0121 0.03617,0.0186 0.01162,0.005 0.02255,0.0123 0.03411,0.0176 0.01584,0.007 0.03125,0.0146 0.04651,0.0227 0.01467,0.008 0.02983,0.0151 0.04444,0.0233 0.01345,0.007 0.02725,0.0149 0.04082,0.0222 0.01235,0.006 0.02452,0.0122 0.03669,0.0186 0.01384,0.006 0.02724,0.0138 0.04031,0.0217 0.01125,0.008 0.02451,0.0131 0.03566,0.0207 0.01348,0.007 0.02643,0.0144 0.03876,0.0233 0.01133,0.008 0.02383,0.0146 0.03566,0.0217 0.01581,0.008 0.03138,0.0168 0.04651,0.0264 0.0084,0.005 0.01669,0.0101 0.02481,0.0155 h 1.829345 v -10.58954 z m 4.2281656,10.188 c 0.0062,-7.9e-4 0.01243,-0.001 0.0186,-0.002 0.0073,-8e-4 0.01441,-0.002 0.0217,-0.003 0.0014,-1.1e-4 0.0061,-5.3e-4 0.0047,-5.3e-4 -0.01857,5.3e-4 -0.03639,5.3e-4 -0.05478,-0.003 -0.0022,-5.3e-4 -0.0036,-5.3e-4 -0.0041,-5.3e-4 9.52e-4,5.3e-4 0.0033,0.001 0.0041,0.002 0.0019,0.001 0.0042,0.003 0.0052,0.004 -5.3e-4,-1.1e-4 -0.0016,-7.9e-4 -0.0036,-0.002 0.0027,0.002 0.0056,0.003 0.0083,0.005 z" />
    </clipPath>
    <clipPath
       clipPathUnits="userSpaceOnUse"
       id="clipPath10062-8">
      <path
         id="path10064-7"
         style="fill:none;fill-opacity:1;fill-rule:evenodd;stroke:#000000;stroke-width:2.80458;stroke-linecap:round;stroke-linejoin:round;stroke-miterlimit:4;stroke-dasharray:none;stroke-opacity:1;paint-order:markers stroke fill"
         d="m 10.426532,136.31131 v 22.55263 c 0.0026,2.6e-4 0.0051,7.9e-4 0.0078,10e-4 0.01558,0.002 0.03193,0.002 0.04703,0.006 0.01852,0.002 0.03682,0.004 0.05529,0.007 0.01911,0.002 0.03778,0.005 0.05684,0.008 0.01713,0.001 0.034,0.003 0.05116,0.003 0.01023,1.1e-4 0.02087,-7.9e-4 0.03101,-0.002 0.0063,-8e-4 0.01238,-0.002 0.0186,-0.003 0.0097,-0.001 0.01976,-0.002 0.02946,-0.004 0.0076,-8e-4 0.01467,-0.003 0.02222,-0.004 0.01024,-0.002 0.02079,-0.003 0.03101,-0.006 0.0086,-0.001 0.01772,-0.003 0.02636,-0.005 0.01189,-0.002 0.02368,-0.005 0.03566,-0.007 0.01252,-0.002 0.0251,-0.004 0.03772,-0.005 0.01475,-0.002 0.02959,-0.002 0.04444,-0.002 0.0088,-0.001 0.01746,-0.003 0.02636,-0.004 l -5.29e-4,5.3e-4 v 5.3e-4 c 0.01621,2.1e-4 0.03253,0.002 0.04857,0.004 0.01633,0.002 0.03232,0.006 0.04806,0.0109 0.0093,0.003 0.01795,0.007 0.02687,0.0114 0.01767,0.005 0.03516,0.01 0.05219,0.0165 0.02254,0.008 0.04331,0.0192 0.06408,0.031 0.01096,0.007 0.02274,0.0121 0.03359,0.0191 0.01054,0.006 0.02125,0.0113 0.03152,0.0176 0.0096,0.006 0.0199,0.0106 0.02894,0.0171 0.0091,0.006 0.01841,0.0115 0.02739,0.0176 0.009,0.006 0.01777,0.0126 0.02687,0.0191 0.0072,0.004 0.01438,0.01 0.0217,0.014 0.0083,0.005 0.01561,0.0101 0.02377,0.015 0.0055,0.004 0.01571,0.01 0.02325,0.015 -8.47e-4,-1.5e-4 0.0026,0.002 0.0057,0.004 4.5e-4,5.3e-4 9.53e-4,8e-4 0.0031,0.003 0.009,0.007 0.0194,0.0119 0.02946,0.0171 0.0089,0.004 0.01764,0.009 0.02636,0.0134 0.0096,0.005 0.01828,0.0105 0.02739,0.016 0.01359,0.008 0.02759,0.0153 0.03979,0.0253 0.0095,0.007 0.01995,0.0138 0.02894,0.0217 0.0087,0.007 0.01844,0.0124 0.02739,0.0191 0.0088,0.006 0.01834,0.0116 0.02739,0.0176 0.0101,0.007 0.02197,0.0127 0.03101,0.0212 0.0016,0.001 0.0033,0.002 0.0047,0.003 5.82e-4,5.3e-4 -8e-6,0.002 5.29e-4,0.003 0.005,0.006 0.01466,0.0106 0.02119,0.015 0.0106,0.007 0.02113,0.0127 0.03152,0.0196 0.0078,0.006 0.01824,0.009 0.02532,0.016 0.0095,0.006 0.01898,0.012 0.02842,0.0181 0.0027,0.002 0.0055,0.003 0.0083,0.005 0.0092,-0.008 0.01839,-0.0148 0.02687,-0.0155 0.0043,-2.6e-4 0.0085,2.7e-4 0.0124,0.003 0.06398,0.0363 0.128578,0.0714 0.19482,0.10335 0.01418,0.006 0.02848,0.0114 0.04237,0.0181 0.01338,0.006 0.02601,0.0145 0.03927,0.0212 0.0056,0.003 0.07616,0.0359 0.08217,0.0382 0.01448,0.006 0.03008,0.008 0.04444,0.0139 0.01271,0.005 0.0245,0.0123 0.03669,0.0186 0.03005,0.0118 0.03745,0.0148 0.03927,0.0155 l 5.29e-4,5.3e-4 c 8.99e-4,0.001 0.0063,0.005 0.03256,0.0186 0.01178,0.006 0.02445,0.0104 0.03617,0.0165 0.0107,0.006 0.02038,0.0129 0.03101,0.0186 0.03159,0.017 0.03733,0.0188 0.03721,0.0181 0.0032,0.002 0.01138,0.007 0.02842,0.0176 0.03345,0.0167 0.03609,0.0174 0.03669,0.0181 9.79e-4,0.001 0.0052,0.006 0.02377,0.0181 0.01021,0.007 0.0219,0.0119 0.03152,0.0196 0.0054,0.004 0.0084,0.0107 0.01292,0.016 0.0088,0.0103 0.01257,0.0145 0.01447,0.0165 l 5.29e-4,5.3e-4 v 5.3e-4 c 0.0015,0.002 0.0048,0.005 0.0124,0.0145 0.005,0.005 0.01041,0.0104 0.01499,0.016 0.0038,0.005 0.0068,0.01 0.01034,0.0145 0.0031,0.004 0.01844,0.0244 0.02222,0.0284 3.44e-4,2.6e-4 7.14e-4,7.9e-4 10e-4,0.001 0.01499,0.004 0.03015,0.007 0.04444,0.0134 0.0071,0.003 0.0083,0.003 0.0155,0.007 0.0077,0.004 0.0154,0.008 0.02325,0.0114 0.0062,0.003 0.01208,0.007 0.0186,0.0103 0.0088,0.004 0.01725,0.008 0.02584,0.0119 -5.55e-4,-2.6e-4 -9.79e-4,-5.3e-4 -5.29e-4,-0.001 5.56e-4,-5.3e-4 0.0013,5.3e-4 0.0021,5.3e-4 6.61e-4,4e-5 0.0014,-1.8e-4 0.0021,0 0.0067,0.002 0.01174,0.007 0.0186,0.009 0.03072,0.006 0.01892,0.0332 -0.01033,0.0687 0.007,0.005 0.01377,0.01 0.02067,0.0145 0.05389,0.0364 0.02736,0.14198 -0.03049,0.24546 H 29.09154 V 136.3114 Z m 0,23.12882 v 0.71469 h 1.635042 c -0.01475,-0.007 -0.02963,-0.0141 -0.04392,-0.0222 -0.01531,-0.008 -0.03039,-0.0158 -0.04547,-0.0238 -0.01349,-0.007 -0.02675,-0.0149 -0.03979,-0.0227 -0.01542,-0.009 -0.0312,-0.0165 -0.04702,-0.0243 -0.01469,-0.006 -0.02868,-0.0137 -0.04186,-0.0227 -0.0141,-0.008 -0.02761,-0.0155 -0.04134,-0.0238 -0.01487,-0.007 -0.0286,-0.0184 -0.04289,-0.0269 -0.01233,-0.008 -0.02506,-0.0142 -0.03721,-0.0222 -0.01397,-0.009 -0.02816,-0.0172 -0.04082,-0.0279 -0.006,-0.004 -0.01169,-0.008 -0.01757,-0.0129 0,0 -5.29e-4,-5.3e-4 -5.29e-4,-5.3e-4 -5.56e-4,-8e-4 -0.0017,-0.001 -0.0026,-0.002 -0.0057,-0.003 -0.01145,-0.006 -0.01705,-0.01 -0.0088,-0.005 -0.01693,-0.0105 -0.02532,-0.016 -0.0105,-0.006 -0.02107,-0.0124 -0.03152,-0.0186 -0.0099,-0.005 -0.02011,-0.0102 -0.02946,-0.0165 -0.01184,-0.007 -0.02313,-0.0155 -0.03462,-0.0233 -0.0083,-0.005 -0.01637,-0.0105 -0.02429,-0.016 -0.0052,-0.006 -0.01491,-0.008 -0.02067,-0.0139 -0.01102,-0.008 -0.0236,-0.0138 -0.03462,-0.0217 -0.01027,-0.006 -0.02027,-0.0131 -0.03049,-0.0196 -0.01157,-0.007 -0.02224,-0.0148 -0.03307,-0.0227 -0.01028,-0.007 -0.02032,-0.0145 -0.03049,-0.0217 -0.01168,-0.008 -0.02367,-0.0149 -0.03617,-0.0212 -0.0085,-0.004 -0.01541,-0.0105 -0.02274,-0.016 -0.01017,-0.007 -0.01979,-0.0143 -0.02997,-0.0212 -0.0104,-0.007 -0.02038,-0.0139 -0.03101,-0.0202 -0.0086,-0.004 -0.0165,-0.01 -0.0248,-0.0145 -0.0077,-0.003 8.73e-4,5.3e-4 -0.0093,-0.005 -0.0075,-0.004 -0.01458,-0.008 -0.0217,-0.0129 -0.009,-0.005 -0.01763,-0.0114 -0.02687,-0.0165 -0.0029,-0.002 -0.0055,-0.004 -0.0083,-0.006 -0.02179,0.028 -0.05004,0.0506 -0.08165,0.0667 -0.01163,0.005 -0.02334,0.009 -0.03514,0.0134 -0.0055,0.002 -0.01132,0.003 -0.01705,0.004 -0.04086,0.008 -0.08201,0.006 -0.12144,-0.008 -0.0085,-0.004 -0.01746,-0.007 -0.02584,-0.0103 -0.0202,-0.009 -0.03803,-0.0228 -0.05633,-0.0351 -0.0096,-0.007 -0.01984,-0.0129 -0.03049,-0.0176 -0.0027,-10e-4 -0.0056,-0.002 -0.0083,-0.003 -0.0019,-7.9e-4 -0.0038,-0.002 -0.0057,-0.003 -0.01035,-0.002 -4.76e-4,-2.7e-4 -0.01137,-0.004 -0.0081,-0.003 -0.01685,-0.006 -0.02481,-0.009 -0.0015,-5.2e-4 -0.0022,-0.002 -0.0036,-0.003 -0.0072,-0.004 -0.01428,-0.01 -0.02119,-0.0145 -0.01267,-0.008 -0.02741,-0.0208 -0.03669,-0.032 -0.0077,-0.009 -0.01462,-0.0195 -0.02222,-0.0289 -3.18e-4,-5.3e-4 -0.0016,-2.2e-4 -0.0021,-5.3e-4 -0.02007,-0.006 -0.01893,-0.0217 -0.0057,-0.0413 -0.01206,-0.001 -0.02418,-0.002 -0.03617,-0.004 -0.021,-0.003 -0.04159,-0.006 -0.06253,-0.009 -0.02032,-0.002 -0.04078,-0.003 -0.06098,-0.006 -0.01412,-0.001 -0.02826,-0.003 -0.04238,-0.004 z" />
    </clipPath>
    <clipPath
       clipPathUnits="userSpaceOnUse"
       id="clipPath10072-0">
      <path
         id="path10074-9"
         style="fill:none;fill-opacity:1;fill-rule:evenodd;stroke:#000000;stroke-width:2.80458;stroke-linecap:round;stroke-linejoin:round;stroke-miterlimit:4;stroke-dasharray:none;stroke-opacity:1;paint-order:markers stroke fill"
         d="M 7.4246479,93.999163 V 154.00997 H 77.729916 V 93.999163 Z" />
    </clipPath>
  </defs>
  <g
     inkscape:label="Layer 1"
     inkscape:groupmode="layer"
     id="layer1"
     transform="translate(105.274,-93.999163)">
    <g
       id="g893"
       transform="translate(129.99936)">
      <path
         d="m 34.916104,155.64373 -0.0175,0.0156 0.005,-0.002 0.0124,-0.0138"
         id="path27725"
         inkscape:connector-curvature="0"
         style="fill:none;fill-opacity:1;stroke:#000000;stroke-width:4.33917;stroke-miterlimit:4;stroke-dasharray:none;stroke-opacity:1" />
      <path
         d="m 9.685174,163.1362 c 0.95885,0.51779 3.92297,1.88489 7.5258,3.2041 0.46064,-0.0505 0.92075,-0.0929 1.37399,-0.18917 0.54689,-0.0839 1.08029,-0.22887 1.61554,-0.36116 0.52626,-0.16483 1.05569,-0.31671 1.56554,-0.52678 1.02526,-0.39767 2.01904,-0.87578 2.95381,-1.4523 1.87695,-1.14115 3.56129,-2.57493 5.06254,-4.17539 0.75194,-0.80037 1.45891,-1.64254 2.13889,-2.5109 0.16722,-0.21272 0.33073,-0.4318 0.49503,-0.64743 -1.1123,0.27887 -2.15476,0.4019 -3.1443,0.4019 -3.07949,0 -5.65838,-1.16787 -8.31956,-2.37305 -3.41789,-1.54834 -6.9469,-3.13954 -12.07559,-2.63419 0.0968,8.45106 1.288097,11.51057 1.477807,12.0572"
         id="path27723"
         inkscape:connector-curvature="0"
         style="fill:none;fill-opacity:1;stroke:#000000;stroke-width:4.33917;stroke-miterlimit:4;stroke-dasharray:none;stroke-opacity:1"
         sodipodi:nodetypes="cccccccccsccc" />
      <path
         d="m 28.815074,169.27427 -0.0151,-0.11642 c 3.1197,-0.34475 6.23067,-0.76676 9.30645,-1.35414 3.06996,-0.59372 6.131192,-1.32 9.002715,-2.51671 1.426105,-0.6059 2.818342,-1.32318 4.009761,-2.30003 0.588698,-0.48074 1.159404,-1.04854 1.738577,-1.57612 l 1.731169,-1.61025 c 1.162579,-1.06416 2.309812,-2.15741 3.608387,-3.07631 0.652462,-0.44874 1.370806,-0.83291 2.15265,-1.00039 0.256117,-0.0553 0.514879,-0.0855 0.773906,-0.10107 -3.383491,-2.25743 -7.468923,-7.40675 -10.31875,-11.35671 -0.994304,3.70125 -4.239683,5.32183 -8.212137,7.3025 -1.536698,0.76676 -3.125788,1.55919 -4.790278,2.56249 -1.03955,0.62653 -2.02116,1.12844 -2.95355,1.52373 l 0.008,0.0204 0.0418,-0.0159 -0.006,0.006 c -0.0336,0.0328 -0.0598,0.0452 -0.10345,0.0929 -0.0836,0.0863 -0.16775,0.17092 -0.25718,0.27464 -0.17542,0.195 -0.35427,0.40878 -0.53366,0.62045 -0.35878,0.42518 -0.72284,0.85831 -1.09617,1.28349 -0.74507,0.8517 -1.52241,1.68222 -2.345,2.46777 -1.64254,1.57083 -3.47134,2.96413 -5.47767,4.03913 -0.99907,0.54345 -2.05396,0.98213 -3.13108,1.33377 -0.53578,0.18706 -1.08956,0.31485 -1.63751,0.45376 -0.55642,0.10636 -1.10913,0.22436 -1.6719,0.27966 -0.24606,0.0384 -1.1799,-0.18751 -1.42808,-0.17061 3.53245,1.25757 8.26015,2.66564 11.60422,2.93393"
         id="path27721"
         inkscape:connector-curvature="0"
         style="fill:none;fill-opacity:1;stroke:#000000;stroke-width:4.33917;stroke-miterlimit:4;stroke-dasharray:none;stroke-opacity:1"
         sodipodi:nodetypes="cccccccccccccccccccccccccccc" />
      <path
         d="m 19.731638,161.17379 -0.119856,-0.0664 -0.129911,-0.0426 c -1.617398,-0.53314 -3.0353,-1.08718 -4.274079,-1.63804 2.459831,-0.60034 5.976937,-1.60628 9.224962,-3.07313 0.389467,-0.17595 0.794015,-0.40535 1.208882,-0.67734 0.281252,0.0236 0.559858,0.0659 0.833437,0.136 0.758825,0.19447 1.442244,0.59425 2.06719,1.05992 1.241689,0.9525 2.343414,2.08412 3.462073,3.19061 l 1.667139,1.67508 0.835025,0.83767 c 0.271463,0.28099 0.39206,0.90366 0.692098,1.17644 1.211262,1.07263 11.269282,2.59584 13.584119,2.95218 3.678054,0.5465 6.160878,1.8488 9.247238,2.57005 0.59399,0.13759 1.588488,-0.38429 2.184598,-0.25888 -9.951244,-0.3093 -29.135201,-1.554 -40.482915,-7.84155"
         id="path27719"
         inkscape:connector-curvature="0"
         style="fill:none;fill-opacity:1;stroke:#000000;stroke-width:4.33917;stroke-miterlimit:4;stroke-dasharray:none;stroke-opacity:1"
         sodipodi:nodetypes="cccccccccccccccc"
         clip-path="url(#clipPath10042)"
         transform="matrix(-1,0,0,1,86.845149,0)" />
      <path
         d="m 8.1259549,154.5473 c 0.009,-0.62865 0.171714,-1.36261 0.343693,-2.1389 0.01931,-0.0868 0.03916,-0.17594 0.05847,-0.26511 0.178329,0.18706 0.373063,0.36513 0.591344,0.52732 0.358775,0.26775 0.78105,0.48048 1.2268731,0.60695 0.446352,0.12621 0.911225,0.16404 1.348846,0.12859 0.150812,-0.0111 0.297127,-0.0325 0.441854,-0.0582 -0.510646,1.10331 -1.080294,2.62572 -1.052777,3.88223 -1.9129381,-1.24222 -2.9290792,-2.85962 -3.0640162,-3.28189"
         id="path27717"
         inkscape:connector-curvature="0"
         style="fill:none;fill-opacity:1;stroke:#000000;stroke-width:4.33917;stroke-miterlimit:4;stroke-dasharray:none;stroke-opacity:1"
         sodipodi:nodetypes="ccccccccc"
         clip-path="url(#clipPath10052)"
         transform="matrix(-1,0,0,1,86.845149,0)" />
      <path
         d="m 23.834002,155.02699 c -3.992033,1.80313 -7.924792,3.17469 -10.124538,3.64935 -0.445823,-0.23547 -1.42236,-0.802 -1.803625,-1.02901 -0.302683,-1.23481 0.494195,-3.23577 1.16412,-4.56133 0.143404,-0.054 0.287073,-0.10689 0.421746,-0.17039 0.05054,-0.0236 0.07911,-0.0336 0.146579,-0.0691 0.05927,-0.0304 0.122766,-0.0624 0.171714,-0.0934 0.106892,-0.0632 0.197644,-0.12674 0.286015,-0.19024 0.3429,-0.25532 0.612775,-0.51356 0.875506,-0.77523 0.260086,-0.26194 0.503767,-0.52731 0.739775,-0.79507 0.471752,-0.53525 0.915723,-1.0795 1.349375,-1.62931 1.72429,-2.20106 3.309938,-4.46801 4.878123,-6.74819 1.255183,-1.83251 2.483379,-3.68009 3.703108,-5.53297 -0.189706,0.6395 -0.361685,1.28852 -0.473869,1.95845 -0.153458,0.89429 -0.157427,1.83964 0.05345,2.73155 0.204788,0.8943 0.578909,1.72085 0.985309,2.51328 0.201612,0.39899 0.423598,0.78423 0.641614,1.17184 0.200554,0.38576 0.403225,0.76544 0.529431,1.18137 0.27358,0.821 0.357188,1.70285 0.288661,2.57439 -0.06615,0.87339 -0.275167,1.73487 -0.5461,2.5744 -0.137054,0.4183 -0.286808,0.83343 -0.438944,1.24777 -1.008856,0.89747 -1.975644,1.59835 -2.847446,1.99179"
         id="path27715"
         inkscape:connector-curvature="0"
         style="fill:none;fill-opacity:1;stroke:#000000;stroke-width:4.33917;stroke-miterlimit:4;stroke-dasharray:none;stroke-opacity:1"
         sodipodi:nodetypes="cccccccccccccccccccccc"
         clip-path="url(#clipPath10062)"
         transform="matrix(-1,0,0,1,86.845149,0)" />
      <path
         d="m 12.541586,132.56545 c 2.950104,-2.07857 11.00111,-11.2022 18.787268,-20.02605 6.106054,-6.91938 13.026496,-14.762157 14.472181,-15.629467 2.83263,-1.69915 12.63226,-1.54913 18.48802,-1.45891 11.710178,3.546327 12.137648,14.332537 9.277589,15.399337 -0.26485,0.31644 -0.41513,0.72496 -0.29184,1.26074 -0.11218,0.16563 -0.60007,0.54319 -1.51765,0.58182 -4.047376,0.6182 -6.11076,0.52563 -6.11076,0.52563 -0.10584,0.11324 -0.37148,0.2323 -0.74481,0.33152 -0.28998,0.0376 -0.5789,0.0765 -0.86439,0.12091 -0.16775,0.0265 -0.33338,0.0579 -0.50086,0.0857 -0.96017,0.0601 -2.12513,-0.0214 -3.25755,-0.39397 -0.71543,-0.23548 -1.93251,-0.7784 -2.04787,-1.77006 -0.0212,-0.18097 -0.0627,-0.33787 -0.11298,-0.48207 -0.136898,-1.17681 -2.894453,-0.85022 -4.02096,-0.60212 -1.72085,0.73184 -3.86265,1.64253 -5.91265,0.51673 l -1.0107,-0.5551 c -0.0138,-0.0241 -0.0288,-0.046 -0.0421,-0.0709 -0.32544,-0.60352 -0.45403,-1.37293 -0.47572,-2.1516 -0.0116,-0.39105 -0.667497,-0.29541 -0.644397,-0.69546 l 0.0344,-0.60351 c 0.006,-0.20135 -3.149303,1.95128 -3.197003,1.75364 0.002,0.20108 3.112303,-1.96822 3.062303,-1.77534 l -0.16854,0.57891 c -0.11298,0.38761 0.450417,0.28853 0.369457,0.69414 -0.15822,0.80777 -0.23839,1.6801 -0.002,2.58313 0.0511,0.19446 0.12277,0.38814 0.20823,0.57811 l -0.15002,0.31803 c -0.5035,1.06548 -1.572948,2.72362 -2.7051,4.4794 -2.301346,3.5679 -4.909873,7.61206 -5.308335,10.40262 -0.06165,0.43153 -0.111919,0.91334 -0.154252,1.42981 -0.456936,0.99853 -0.908315,1.99866 -1.352286,3.00355 -0.829733,1.88568 -1.643856,3.77851 -2.354791,5.72849 l -0.250825,0.7411 c -0.07514,0.25426 -0.148432,0.5072 -0.215107,0.76888 -0.136789,0.57308 -0.08784,1.09802 -0.068,1.61607 0.06297,1.03294 0.141288,2.04364 0.09975,3.05911 -0.02699,0.76703 -0.121973,1.53432 -0.312473,2.2786 -2.068247,2.75404 -4.529666,5.75177 -6.788943,7.77928 0.154516,-0.38048 0.307181,-0.7628 0.448998,-1.14988 0.300566,-0.83371 0.542131,-1.69678 0.64082,-2.58684 0.100013,-0.88767 0.0471,-1.80366 -0.209285,-2.67229 l -0.102923,-0.32358 -0.05186,-0.16193 -0.07064,-0.15425 c -0.09498,-0.20479 -0.18706,-0.41592 -0.286279,-0.61516 -0.202671,-0.39105 -0.409311,-0.78052 -0.593461,-1.17845 -0.373591,-0.7919 -0.705379,-1.60523 -0.867039,-2.44554 -0.166952,-0.83979 -0.134673,-1.69757 0.03863,-2.54053 0.170921,-0.84429 0.449792,-1.67614 0.739246,-2.50534 0.206904,-0.58896 0.427567,-1.17634 0.649287,-1.76424 2.829984,-4.34393 5.608373,-8.71776 8.373798,-13.09794 l 4.415631,-7.00087 2.221177,-3.49118 1.127125,-1.73461 c 0.383911,-0.57256 3.599807,-3.48621 0.203016,-1.39837 -0.445823,0.52679 0.143059,0.80015 -0.259901,1.35948 l 0.259901,-1.35948 c -9.481786,14.07494 -18.324457,30.16594 -28.990476,41.6915 -0.228335,0.2421 -0.459845,0.47758 -0.692943,0.69745 -0.23204,0.21775 -0.472546,0.4265 -0.689769,0.57546 -0.05265,0.0349 -0.104775,0.0688 -0.147373,0.091 -0.02434,0.0148 -0.03916,0.0188 -0.05662,0.0278 -0.0082,0.006 -0.06059,0.0257 -0.0889,0.0381 -0.135731,0.0585 -0.271462,0.10504 -0.405871,0.1487 -0.269081,0.082 -0.534458,0.1352 -0.783695,0.14367 -0.50165,0.0201 -0.924455,-0.11668 -1.302809,-0.41778 -0.3794121,-0.29819 -0.7029981,-0.76253 -0.9543521,-1.29275 -0.1651,-0.34925 -0.299244,-0.72734 -0.411692,-1.1184 -0.005,-0.83555 -0.01984,-1.67587 -0.03784,-2.49581 -0.123031,-5.61314 -0.238919,-10.91539 3.6697711,-13.66917"
         id="path27713"
         inkscape:connector-curvature="0"
         style="fill:none;fill-opacity:1;stroke:#000000;stroke-width:4.33917;stroke-miterlimit:4;stroke-dasharray:none;stroke-opacity:1"
         sodipodi:nodetypes="cccccccccccccccccccccccccccccsccccccccccccccccccccccccccccccccccccccccc"
         clip-path="url(#clipPath10072)"
         transform="matrix(-1,0,0,1,86.845149,0)" />
      <path
         d="m 18.082514,136.42969 c -1.05465,0.54154 -2.01782,1.18606 -2.89006,1.88663 -2.228,1.78952 -5.497053,11.32273 -6.547413,13.0616 0.24448,-0.19765 2.125183,-7.77114 2.374683,-7.96112 1.61105,-1.22528 3.32185,-2.30399 5.10699,-3.24194 1.78673,-0.93345 3.6531,-1.71926 5.58536,-2.30319 1.93145,-0.57891 3.93065,-0.96282 5.95048,-1.0459 2.01771,-0.091 4.05341,0.12224 5.9936,0.6768 0.96891,0.27543 1.91558,0.63342 2.82046,1.06839 0.90038,0.41302 1.79308,0.84508 2.70007,1.24275 1.81081,0.80407 3.647019,1.5539 5.527413,2.17514 0.471223,0.15028 0.941917,0.30639 1.4224,0.42439 0.239712,0.0598 0.476779,0.13547 0.719137,0.18309 l 0.726811,0.14923 c 0.243681,0.0426 0.489479,0.0677 0.734483,0.10265 0.245533,0.0262 0.493183,0.0302 0.739775,0.0368 l -0.110462,-0.72835 -1.408779,-0.35821 c -3.350245,-2.2595 -5.732008,-4.60417 -8.486908,-6.09133 -3.25685,-1.75813 -6.77761,-3.20396 -9.34261,-3.13532 -4.95814,0.13267 -8.33578,2.17332 -11.61543,3.85746"
         id="path27711"
         inkscape:connector-curvature="0"
         style="fill:none;fill-opacity:1;stroke:#000000;stroke-width:4.33917;stroke-miterlimit:4;stroke-dasharray:none;stroke-opacity:1"
         sodipodi:nodetypes="csccccccccccccccccssc" />
    </g>
    <g
       id="g845"
       transform="translate(-111.95864,2.61e-4)"
       style="stroke:#000000;stroke-opacity:1">
      <path
         d="m 51.929045,155.64373 0.0175,0.0156 -0.005,-0.002 -0.0124,-0.0138"
         id="path27725-7"
         inkscape:connector-curvature="0"
         style="fill:none;fill-opacity:1;stroke:#000000;stroke-width:4.33917;stroke-miterlimit:4;stroke-dasharray:none;stroke-opacity:1" />
      <path
         d="m 77.159975,163.1362 c -0.95885,0.51779 -3.92297,1.88489 -7.5258,3.2041 -0.46064,-0.0505 -0.92075,-0.0929 -1.37399,-0.18917 -0.54689,-0.0839 -1.08029,-0.22887 -1.61554,-0.36116 -0.52626,-0.16483 -1.05569,-0.31671 -1.56554,-0.52678 -1.02526,-0.39767 -2.01904,-0.87578 -2.95381,-1.4523 -1.87695,-1.14115 -3.56129,-2.57493 -5.06254,-4.17539 -0.75194,-0.80037 -1.45891,-1.64254 -2.13889,-2.5109 -0.16722,-0.21272 -0.33073,-0.4318 -0.49503,-0.64743 1.1123,0.27887 2.15476,0.4019 3.1443,0.4019 3.07949,0 5.65838,-1.16787 8.31956,-2.37305 3.41789,-1.54834 6.9469,-3.13954 12.07559,-2.63419 -0.0968,8.45106 -1.288097,11.51057 -1.477807,12.0572"
         id="path27723-7"
         inkscape:connector-curvature="0"
         style="fill:none;fill-opacity:1;stroke:#000000;stroke-width:4.33917;stroke-miterlimit:4;stroke-dasharray:none;stroke-opacity:1"
         sodipodi:nodetypes="cccccccccsccc" />
      <path
         d="m 58.030075,169.27427 0.0151,-0.11642 c -3.1197,-0.34475 -6.23067,-0.76676 -9.30645,-1.35414 -3.06996,-0.59372 -6.131192,-1.32 -9.002715,-2.51671 -1.426105,-0.6059 -2.818342,-1.32318 -4.009761,-2.30003 -0.588698,-0.48074 -1.159404,-1.04854 -1.738577,-1.57612 l -1.731169,-1.61025 c -1.162579,-1.06416 -2.309812,-2.15741 -3.608387,-3.07631 -0.652462,-0.44874 -1.370806,-0.83291 -2.15265,-1.00039 -0.256117,-0.0553 -0.514879,-0.0855 -0.773906,-0.10107 3.383491,-2.25743 7.468923,-7.40675 10.31875,-11.35671 0.994304,3.70125 4.239683,5.32183 8.212137,7.3025 1.536698,0.76676 3.125788,1.55919 4.790278,2.56249 1.03955,0.62653 2.02116,1.12844 2.95355,1.52373 l -0.008,0.0204 -0.0418,-0.0159 0.006,0.006 c 0.0336,0.0328 0.0598,0.0452 0.10345,0.0929 0.0836,0.0863 0.16775,0.17092 0.25718,0.27464 0.17542,0.195 0.35427,0.40878 0.53366,0.62045 0.35878,0.42518 0.72284,0.85831 1.09617,1.28349 0.74507,0.8517 1.52241,1.68222 2.345,2.46777 1.64254,1.57083 3.47134,2.96413 5.47767,4.03913 0.99907,0.54345 2.05396,0.98213 3.13108,1.33377 0.53578,0.18706 1.08956,0.31485 1.63751,0.45376 0.55642,0.10636 1.10913,0.22436 1.6719,0.27966 0.24606,0.0384 1.1799,-0.18751 1.42808,-0.17061 -3.53245,1.25757 -8.26015,2.66564 -11.60422,2.93393"
         id="path27721-2"
         inkscape:connector-curvature="0"
         style="fill:none;fill-opacity:1;stroke:#000000;stroke-width:4.33917;stroke-miterlimit:4;stroke-dasharray:none;stroke-opacity:1"
         sodipodi:nodetypes="cccccccccccccccccccccccccccc" />
      <path
         d="m 19.731638,161.17379 -0.119856,-0.0664 -0.129911,-0.0426 c -1.617398,-0.53314 -3.0353,-1.08718 -4.274079,-1.63804 2.459831,-0.60034 5.976937,-1.60628 9.224962,-3.07313 0.389467,-0.17595 0.794015,-0.40535 1.208882,-0.67734 0.281252,0.0236 0.559858,0.0659 0.833437,0.136 0.758825,0.19447 1.442244,0.59425 2.06719,1.05992 1.241689,0.9525 2.343414,2.08412 3.462073,3.19061 l 1.667139,1.67508 0.835025,0.83767 c 0.271463,0.28099 0.39206,0.90366 0.692098,1.17644 1.211262,1.07263 11.269282,2.59584 13.584119,2.95218 3.678054,0.5465 6.160878,1.8488 9.247238,2.57005 0.59399,0.13759 1.588488,-0.38429 2.184598,-0.25888 -9.951244,-0.3093 -29.135201,-1.554 -40.482915,-7.84155"
         id="path27719-9"
         inkscape:connector-curvature="0"
         style="fill:none;fill-opacity:1;stroke:#000000;stroke-width:4.33917;stroke-miterlimit:4;stroke-dasharray:none;stroke-opacity:1"
         sodipodi:nodetypes="cccccccccccccccc"
         clip-path="url(#clipPath10042-5)" />
      <path
         d="m 8.1259549,154.5473 c 0.009,-0.62865 0.171714,-1.36261 0.343693,-2.1389 0.01931,-0.0868 0.03916,-0.17594 0.05847,-0.26511 0.178329,0.18706 0.373063,0.36513 0.591344,0.52732 0.358775,0.26775 0.78105,0.48048 1.2268731,0.60695 0.446352,0.12621 0.911225,0.16404 1.348846,0.12859 0.150812,-0.0111 0.297127,-0.0325 0.441854,-0.0582 -0.510646,1.10331 -1.080294,2.62572 -1.052777,3.88223 -1.9129381,-1.24222 -2.9290792,-2.85962 -3.0640162,-3.28189"
         id="path27717-0"
         inkscape:connector-curvature="0"
         style="fill:none;fill-opacity:1;stroke:#000000;stroke-width:4.33917;stroke-miterlimit:4;stroke-dasharray:none;stroke-opacity:1"
         sodipodi:nodetypes="ccccccccc"
         clip-path="url(#clipPath10052-7)" />
      <path
         d="m 23.834002,155.02699 c -3.992033,1.80313 -7.924792,3.17469 -10.124538,3.64935 -0.445823,-0.23547 -1.42236,-0.802 -1.803625,-1.02901 -0.302683,-1.23481 0.494195,-3.23577 1.16412,-4.56133 0.143404,-0.054 0.287073,-0.10689 0.421746,-0.17039 0.05054,-0.0236 0.07911,-0.0336 0.146579,-0.0691 0.05927,-0.0304 0.122766,-0.0624 0.171714,-0.0934 0.106892,-0.0632 0.197644,-0.12674 0.286015,-0.19024 0.3429,-0.25532 0.612775,-0.51356 0.875506,-0.77523 0.260086,-0.26194 0.503767,-0.52731 0.739775,-0.79507 0.471752,-0.53525 0.915723,-1.0795 1.349375,-1.62931 1.72429,-2.20106 3.309938,-4.46801 4.878123,-6.74819 1.255183,-1.83251 2.483379,-3.68009 3.703108,-5.53297 -0.189706,0.6395 -0.361685,1.28852 -0.473869,1.95845 -0.153458,0.89429 -0.157427,1.83964 0.05345,2.73155 0.204788,0.8943 0.578909,1.72085 0.985309,2.51328 0.201612,0.39899 0.423598,0.78423 0.641614,1.17184 0.200554,0.38576 0.403225,0.76544 0.529431,1.18137 0.27358,0.821 0.357188,1.70285 0.288661,2.57439 -0.06615,0.87339 -0.275167,1.73487 -0.5461,2.5744 -0.137054,0.4183 -0.286808,0.83343 -0.438944,1.24777 -1.008856,0.89747 -1.975644,1.59835 -2.847446,1.99179"
         id="path27715-6"
         inkscape:connector-curvature="0"
         style="fill:none;fill-opacity:1;stroke:#000000;stroke-width:4.33917;stroke-miterlimit:4;stroke-dasharray:none;stroke-opacity:1"
         sodipodi:nodetypes="cccccccccccccccccccccc"
         clip-path="url(#clipPath10062-8)" />
      <path
         d="m 12.541586,132.56545 c 2.950104,-2.07857 11.00111,-11.2022 18.787268,-20.02605 6.106054,-6.91938 13.026496,-14.762157 14.472181,-15.629467 2.83263,-1.69915 12.63226,-1.54913 18.48802,-1.45891 11.710178,3.546327 12.137648,14.332537 9.277589,15.399337 -0.26485,0.31644 -0.41513,0.72496 -0.29184,1.26074 -0.11218,0.16563 -0.60007,0.54319 -1.51765,0.58182 -4.047376,0.6182 -6.11076,0.52563 -6.11076,0.52563 -0.10584,0.11324 -0.37148,0.2323 -0.74481,0.33152 -0.28998,0.0376 -0.5789,0.0765 -0.86439,0.12091 -0.16775,0.0265 -0.33338,0.0579 -0.50086,0.0857 -0.96017,0.0601 -2.12513,-0.0214 -3.25755,-0.39397 -0.71543,-0.23548 -1.93251,-0.7784 -2.04787,-1.77006 -0.0212,-0.18097 -0.0627,-0.33787 -0.11298,-0.48207 -0.136898,-1.17681 -2.894453,-0.85022 -4.02096,-0.60212 -1.72085,0.73184 -3.86265,1.64253 -5.91265,0.51673 l -1.0107,-0.5551 c -0.0138,-0.0241 -0.0288,-0.046 -0.0421,-0.0709 -0.32544,-0.60352 -0.45403,-1.37293 -0.47572,-2.1516 -0.0116,-0.39105 -0.667497,-0.29541 -0.644397,-0.69546 l 0.0344,-0.60351 c 0.006,-0.20135 -3.149303,1.95128 -3.197003,1.75364 0.002,0.20108 3.112303,-1.96822 3.062303,-1.77534 l -0.16854,0.57891 c -0.11298,0.38761 0.450417,0.28853 0.369457,0.69414 -0.15822,0.80777 -0.23839,1.6801 -0.002,2.58313 0.0511,0.19446 0.12277,0.38814 0.20823,0.57811 l -0.15002,0.31803 c -0.5035,1.06548 -1.572948,2.72362 -2.7051,4.4794 -2.301346,3.5679 -4.909873,7.61206 -5.308335,10.40262 -0.06165,0.43153 -0.111919,0.91334 -0.154252,1.42981 -0.456936,0.99853 -0.908315,1.99866 -1.352286,3.00355 -0.829733,1.88568 -1.643856,3.77851 -2.354791,5.72849 l -0.250825,0.7411 c -0.07514,0.25426 -0.148432,0.5072 -0.215107,0.76888 -0.136789,0.57308 -0.08784,1.09802 -0.068,1.61607 0.06297,1.03294 0.141288,2.04364 0.09975,3.05911 -0.02699,0.76703 -0.121973,1.53432 -0.312473,2.2786 -2.068247,2.75404 -4.529666,5.75177 -6.788943,7.77928 0.154516,-0.38048 0.307181,-0.7628 0.448998,-1.14988 0.300566,-0.83371 0.542131,-1.69678 0.64082,-2.58684 0.100013,-0.88767 0.0471,-1.80366 -0.209285,-2.67229 l -0.102923,-0.32358 -0.05186,-0.16193 -0.07064,-0.15425 c -0.09498,-0.20479 -0.18706,-0.41592 -0.286279,-0.61516 -0.202671,-0.39105 -0.409311,-0.78052 -0.593461,-1.17845 -0.373591,-0.7919 -0.705379,-1.60523 -0.867039,-2.44554 -0.166952,-0.83979 -0.134673,-1.69757 0.03863,-2.54053 0.170921,-0.84429 0.449792,-1.67614 0.739246,-2.50534 0.206904,-0.58896 0.427567,-1.17634 0.649287,-1.76424 2.829984,-4.34393 5.608373,-8.71776 8.373798,-13.09794 l 4.415631,-7.00087 2.221177,-3.49118 1.127125,-1.73461 c 0.383911,-0.57256 3.599807,-3.48621 0.203016,-1.39837 -0.445823,0.52679 0.143059,0.80015 -0.259901,1.35948 l 0.259901,-1.35948 c -9.481786,14.07494 -18.324457,30.16594 -28.990476,41.6915 -0.228335,0.2421 -0.459845,0.47758 -0.692943,0.69745 -0.23204,0.21775 -0.472546,0.4265 -0.689769,0.57546 -0.05265,0.0349 -0.104775,0.0688 -0.147373,0.091 -0.02434,0.0148 -0.03916,0.0188 -0.05662,0.0278 -0.0082,0.006 -0.06059,0.0257 -0.0889,0.0381 -0.135731,0.0585 -0.271462,0.10504 -0.405871,0.1487 -0.269081,0.082 -0.534458,0.1352 -0.783695,0.14367 -0.50165,0.0201 -0.924455,-0.11668 -1.302809,-0.41778 -0.3794121,-0.29819 -0.7029981,-0.76253 -0.9543521,-1.29275 -0.1651,-0.34925 -0.299244,-0.72734 -0.411692,-1.1184 -0.005,-0.83555 -0.01984,-1.67587 -0.03784,-2.49581 -0.123031,-5.61314 -0.238919,-10.91539 3.6697711,-13.66917"
         id="path27713-3"
         inkscape:connector-curvature="0"
         style="fill:none;fill-opacity:1;stroke:#000000;stroke-width:4.33917;stroke-miterlimit:4;stroke-dasharray:none;stroke-opacity:1"
         sodipodi:nodetypes="cccccccccccccccccccccccccccccsccccccccccccccccccccccccccccccccccccccccc"
         clip-path="url(#clipPath10072-0)" />
      <path
         d="m 68.762635,136.42969 c 1.05465,0.54154 2.01782,1.18606 2.89006,1.88663 2.228,1.78952 5.497053,11.32273 6.547413,13.0616 -0.24448,-0.19765 -2.125183,-7.77114 -2.374683,-7.96112 -1.61105,-1.22528 -3.32185,-2.30399 -5.10699,-3.24194 -1.78673,-0.93345 -3.6531,-1.71926 -5.58536,-2.30319 -1.93145,-0.57891 -3.93065,-0.96282 -5.95048,-1.0459 -2.01771,-0.091 -4.05341,0.12224 -5.9936,0.6768 -0.96891,0.27543 -1.91558,0.63342 -2.82046,1.06839 -0.90038,0.41302 -1.79308,0.84508 -2.70007,1.24275 -1.81081,0.80407 -3.647019,1.5539 -5.527413,2.17514 -0.471223,0.15028 -0.941917,0.30639 -1.4224,0.42439 -0.239712,0.0598 -0.476779,0.13547 -0.719137,0.18309 l -0.726811,0.14923 c -0.243681,0.0426 -0.489479,0.0677 -0.734483,0.10265 -0.245533,0.0262 -0.493183,0.0302 -0.739775,0.0368 l 0.110462,-0.72835 1.408779,-0.35821 c 3.350245,-2.2595 5.732008,-4.60417 8.486908,-6.09133 3.25685,-1.75813 6.77761,-3.20396 9.34261,-3.13532 4.95814,0.13267 8.33578,2.17332 11.61543,3.85746"
         id="path27711-0"
         inkscape:connector-curvature="0"
         style="fill:none;fill-opacity:1;stroke:#000000;stroke-width:4.33917;stroke-miterlimit:4;stroke-dasharray:none;stroke-opacity:1"
         sodipodi:nodetypes="csccccccccccccccccssc" />
    </g>
    <text
       xml:space="preserve"
       transform="matrix(0.26458333,0,0,0.26458333,3.2192199,91.325424)"
       id="text1866"
       style="font-style:normal;font-weight:normal;font-size:40px;line-height:1.25;font-family:sans-serif;white-space:pre;shape-inside:url(#rect1868);fill:#000000;fill-opacity:1;stroke:none" />
    <text
       xml:space="preserve"
       style="font-style:normal;font-weight:normal;font-size:10.5833px;line-height:1.25;font-family:sans-serif;letter-spacing:1.72508px;fill:#000000;fill-opacity:1;stroke:none;stroke-width:0.264583"
       x="-28.745953"
       y="161.48006"
       id="text1984"><tspan
         sodipodi:role="line"
         id="tspan1982"
         style="font-style:normal;font-variant:normal;font-weight:bold;font-stretch:normal;font-size:22.9306px;font-family:Rubik;-inkscape-font-specification:'Rubik, Bold';font-variant-ligatures:normal;font-variant-caps:normal;font-variant-numeric:normal;font-variant-east-asian:normal;stroke-width:0.264583"
         x="-28.745953"
         y="161.48006"
         dy="0"
         dx="0">WORK IT OUT</tspan></text>
  </g>
</svg>
